<svg version="1" xmlns="http://www.w3.org/2000/svg" width="846.667" height="846.667" viewBox="0 0 635.000000 635.000000"><path d="M131.7 1.5c-24.8 4-48.2 13.7-67.2 27.7-10.2 7.5-27.1 25-34.1 35.3C-10.1 124-4.1 202.1 45 253.3c23 24.1 51.5 39.2 84.1 44.8 10.6 1.8 14.9 2 29.4 1.6 18.1-.6 28.4-2.3 43.3-7.3l8.2-2.7 35.4 2.8c19.4 1.5 36.3 2.5 37.4 2.3 1.8-.3.9-2.4-9.4-19.7-6.3-10.6-11.4-19.5-11.4-19.8 0-.2 2.9-3.9 6.4-8.2 17.3-21.3 27.1-41.6 32.7-68.1 3.3-15.2 3.3-42.9 0-58-3-14.2-6.2-23.4-12.5-36.5-20.5-42.3-57.9-71.3-104.8-81.6-12.5-2.7-39.7-3.4-52.1-1.4zM192 235.6c6.9 5.9 7.9 12.7 2.6 18-3.8 3.8-6.2 4.2-11.3 1.7-4.4-2.1-7.3-6.7-7.3-11.6 0-4.8 1.3-7.2 4.8-9.1 4-2.3 7.7-1.9 11.2 1zM461 1.4C393.6 11.8 343.1 62.2 333 129c-1.6 10.6-1.4 33.1.5 44.7 4.2 27 17.9 56.3 34.9 75l5.6 6.2-11.5 19.6c-6.4 10.8-11.5 20-11.3 20.3.2.4 17-.5 37.3-2.1l37-2.9 9.5 3.1c17.8 5.6 24.5 6.6 47 6.6 16.2 0 22.3-.4 29-1.9 14.2-3.1 23.9-6.4 37.5-13.1 41.4-20.4 70.4-57.9 80.6-104.5 3.2-14.9 3.3-43.7.1-58.6C616 60.3 571.8 15.8 511.5 3 498.8.3 473.4-.5 461 1.4zm-3.4 232.7c4.9 4.6 2.3 15.9-4.5 19.4-4.3 2.2-7.5 1.9-10.9-1-5.7-4.8-5-12.8 1.5-18.6 3.1-2.7 4.2-3 7.6-2.6 2.1.3 5 1.6 6.3 2.8zM135.5 335.7c-22.3 2.8-46.3 11.8-66.5 25.1-11.8 7.7-31.8 27.9-39.8 40.1-15.3 23.3-23.4 47-25.2 73.6-6 89 66.3 163.8 155 160.2 23-1 42.1-5.7 61.2-15.3 42.3-21.1 70.7-58.2 81-105.8 3.2-14.7 3.1-42.6-.1-57.6-5.7-26.6-15.9-48-32.7-68.1-3.5-4.3-6.4-7.9-6.4-8.2 0-.2 5.1-9.2 11.4-19.8 11.1-18.8 11.4-19.4 9-19.7-1.4-.2-18.3.9-37.5 2.3l-34.9 2.7-9.8-3.1c-15.1-5-29.9-7.1-47-7-8.1.1-16 .4-17.7.6zm61.6 51.2c4.5 4.5 3.9 11-1.5 17-4.5 5-11.4 4.7-15.6-.6-8-10.2 8-25.5 17.1-16.4zM460.5 335.6c-8.7 1.3-19 3.7-27.7 6.5l-9.8 3.1-35.4-2.7c-19.5-1.5-36.4-2.5-37.5-2.3-2 .3-1.1 2.2 9.4 20l11.6 19.7-6.1 7.3c-16.9 20.1-27.2 41.1-33.2 68-3.1 13.9-3.3 44.6-.4 57.8 9.1 42.1 31.7 75.6 66.1 98 15 9.8 32.5 16.9 52.2 21.2 13.4 3 43.3 3.2 56.8.5 51.4-10.5 92.2-43.8 111.5-91.1 7.6-18.7 11-36.1 11-57.3 0-40-15.3-76.6-44-105.3-21-21.1-43.7-33.7-73-40.7-8.9-2.1-13.5-2.5-29.5-2.8-10.4-.2-20.3-.1-22 .1zm-10.6 49.8c3.4 1.8 5.7 5.2 6.6 9.7 1.3 6.8-3.3 12.3-10.2 12.3-2.9 0-4.3-.8-7.4-4.2-3.4-3.5-3.9-4.8-3.9-8.7 0-8.4 7.4-12.9 14.9-9.1z"/></svg>